<svg version="1.2" xmlns="http://www.w3.org/2000/svg" viewBox="0 0 40 40" width="40" height="40">
	<title>logo-ignite-svg</title>
	<style>
		.s0 { opacity: .5;fill: #00b37e } 
		.s1 { fill: #00b37e } 
	</style>
	<path id="Layer" class="s0" d="m40 0.3l-9.8 36.5c0 0.2-0.2 0.2-0.4 0.1l-6.5-6.5 4.9-18.3c0-0.2-0.1-0.4-0.3-0.3l-18.3 4.9-6.5-6.5c-0.1-0.1-0.1-0.3 0.1-0.4l36.5-9.8c0.2 0 0.3 0.1 0.3 0.3z"/>
	<path id="Layer" class="s0" d="m23.3 30.4l-2.5 9.4c-0.1 0.2-0.3 0.3-0.4 0.1l-20.3-20.3c-0.2-0.1-0.1-0.3 0.1-0.4l9.4-2.5z"/>
	<path id="Layer" class="s1" d="m28.2 12.1l-4.9 18.3-13.7-13.7 18.3-4.9c0.2-0.1 0.3 0.1 0.3 0.3z"/>
</svg>